<mxfile host="app.diagrams.net" modified="2023-10-24T18:57:46.426Z" agent="Mozilla/5.0 (Windows NT 10.0; Win64; x64) AppleWebKit/537.36 (KHTML, like Gecko) Chrome/118.0.0.0 Safari/537.36" version="22.0.7" etag="c3HKjwlC3cQeIKg6Ob2q" type="github">
  <diagram name="Page-1" id="33dReibMKrruEQ182O50">
    <mxGraphModel>
      <root>
        <mxCell id="0" />
        <mxCell id="1" parent="0" />
      </root>
    </mxGraphModel>
  </diagram>
</mxfile>
